<svg xmlns="http://www.w3.org/2000/svg" xmlns:xlink="http://www.w3.org/1999/xlink" id="Calque_1" x="0px" y="0px" viewBox="0 0 228 95" style="enable-background:new 0 0 228 95;" xml:space="preserve">
<style type="text/css">
	.st0{fill:#1F73B5;}
	.st1{fill:#5B5C5E;}
</style>
<g>
	<g>
		<path class="st0" d="M41,39.8c0-1.1,0-2.3,0-3.4c0.4-3.1,1-5.9,2.3-8.8c1.7-3.7,4.3-6.8,7.2-9.5c1.7-1.6,3.6-2.9,5.6-4    c3.2-1.8,6.7-3.1,10.3-4c1.6-0.4,3.2-0.6,4.9-0.7c1.8-0.2,3.6-0.3,5.4-0.3c1.8,0.1,3.6,0.3,5.4,0.6c2.7,0.4,5.3,1.2,7.9,2.1    c0.1,0,0.2,0.1,0.4,0.2c-0.1-0.8,0.2-1.5,0.2-2.2c0-3.2,0-6.4,0-9.6c0-0.6,0.2-0.6,0.6-0.6c6.1,0,12.2,0,18.2,0    c0.5,0,0.6,0.1,0.6,0.6c0,3,0,5.9,0,8.9c0,0.6-0.1,1.3-0.1,2c0,0.5,0.1,0.6,0.6,0.5c1.7-0.6,3.2-1.1,4.9-1.5    c1.6-0.4,3.1-0.6,4.8-0.8c2.1-0.3,4.2-0.4,6.3-0.3c2.4,0.1,4.7,0.4,7,0.9c1.8,0.4,3.5,0.9,5.2,1.5c0.6,0.2,0.6,0,0.6-0.5    c0-3.5,0-7.1,0-10.6c0-0.6,0.2-0.7,0.7-0.7c6,0,12.1,0,18.1,0c0.6,0,0.8,0.2,0.8,0.8c0,1.6-0.1,3.2-0.2,4.8c0,2.2,0,4.5,0,6.8    c0.7-0.3,1.4-0.5,2.1-0.7c2.4-0.8,4.8-1.4,7.3-1.8c2.9-0.5,5.7-0.5,8.6-0.3c4.2,0.3,8.2,1.2,12.2,2.9c2.7,1.1,5.2,2.4,7.4,4.1    c1.9,1.4,3.7,3.1,5.3,4.9c1.6,1.8,2.9,3.7,3.9,5.7c1.3,2.5,2.1,5.1,2.4,8c0.1,1.1,0.3,2.2,0.3,3.4c0,3.2-0.6,6.3-1.9,9.2    c-1.1,2.6-2.6,4.9-4.3,7c-2.6,3.1-5.6,5.6-9.2,7.6c-2.9,1.6-5.9,2.8-9.1,3.5c-2.2,0.6-4.5,0.9-6.8,1c-2.5,0.2-4.9,0.2-7.3-0.1    c-3.5-0.3-6.9-1.1-10.3-2.4c-0.2-0.1-0.5-0.2-0.7-0.3c0,0.6,0,1.3,0,1.9c0,0.6-0.1,0.6-0.6,0.6c-4.8,0-9.6,0-14.4,0    c-1.3,0-2.6,0-4,0c-0.4,0-0.5-0.1-0.5-0.5c0-0.5,0-1,0-1.5c0-0.4,0-0.6-0.5-0.4c-1.8,0.6-3.4,1.1-5.3,1.5c-1.5,0.3-3,0.6-4.4,0.6    c-1.6,0.1-3.1,0.4-4.8,0.3c-2.9-0.2-5.7-0.4-8.5-1c-1.9-0.5-3.9-1.1-5.8-1.8c0,0.7,0,1.5,0,2.2c0,0.4,0,0.5-0.5,0.5    c-6.2,0-12.4,0-18.6,0c-0.4,0-0.5-0.1-0.5-0.5c0-0.6,0-1,0-1.6c0-0.4-0.1-0.5-0.5-0.3c-1.3,0.5-2.7,0.9-4,1.3    c-1.6,0.4-3.1,0.7-4.8,0.9c-2.1,0.3-4.2,0.5-6.3,0.4c-4.9-0.2-9.6-1-14.2-2.9c-3.1-1.3-6-3-8.6-5c-3.1-2.5-5.7-5.5-7.7-9    c-1.3-2.5-2.4-5.1-2.7-8C41.2,41.3,41.1,40.5,41,39.8z M74.8,48.9c1,0,2-0.1,3.1-0.3c3.4-0.6,6.4-1.8,8.8-4.4c2.4-2.6,3-6,1.5-9.2    c-1.1-2.3-3-3.8-5.2-5c-3.5-1.8-7.3-2.3-11.2-1.7c-2.5,0.4-4.8,1.3-6.8,2.8c-1.6,1.2-2.9,2.6-3.5,4.3c-0.6,1.8-0.8,3.5-0.2,5.3    c1,2.9,3.1,4.8,5.6,6.2C69.3,48.4,72,48.9,74.8,48.9z M173.2,48.9c2.4,0.1,4.7-0.4,6.9-1.3s4.3-2.2,5.6-4.3c1.6-2.3,1.9-4.8,1-7.5    c-0.8-2.2-2.4-3.8-4.3-5c-2.3-1.6-5.1-2.3-7.9-2.5c-1.8-0.2-3.6,0-5.5,0.4c-3.3,0.8-6.3,2.1-8.3,5c-1.8,2.6-2.3,5.4-0.9,8.4    c1.1,2.4,3.1,4.1,5.4,5.2C167.7,48.5,170.4,49.1,173.2,48.9z M138.2,38.5c0-0.7-0.1-1.4-0.3-2.1c-0.6-2.2-1.9-3.9-3.7-5.2    c-3.7-2.6-7.9-3.6-12.3-3c-2.2,0.3-4.3,0.9-6.3,2c-2.1,1.2-3.9,2.9-4.9,5.2c-0.6,1.5-0.8,3.1-0.5,4.7c0.6,2.5,2,4.3,4.1,5.8    c2.2,1.6,4.7,2.4,7.3,2.8c1.3,0.2,2.7,0.3,4,0.1c1.1-0.2,2.2-0.3,3.3-0.6c2.1-0.6,4.1-1.5,5.7-3C136.9,43.5,138.1,41.3,138.2,38.5    z"></path>
	</g>
	<g>
		<path class="st1" d="M2.9,51.8L3,52.3l0,0l0.1-0.5l1.6-5.6h1.1l-2.2,7.4h-1l-2.2-7.4h1.1L2.9,51.8z"></path>
		<path class="st1" d="M7.7,53.5h-1v-7.4h1V53.5z"></path>
		<path class="st1" d="M10.2,52.7h3v0.7h-4v-7.4h1C10.2,46.1,10.2,52.7,10.2,52.7z"></path>
		<path class="st1" d="M15.2,52.7h3v0.7h-4v-7.4h1V52.7z"></path>
		<path class="st1" d="M22.7,50h-2.5v2.7h3v0.7h-4v-7.4h4v0.8h-3v2.4h2.5V50z"></path>
		<path class="st1" d="M26.5,53.5v-7.4h2.1c0.8,0,1.5,0.3,1.9,0.9c0.5,0.6,0.7,1.4,0.7,2.3v1c0,0.9-0.3,1.7-0.7,2.3    c-0.5,0.6-1.1,0.9-1.9,0.9L26.5,53.5L26.5,53.5z M27.5,46.9v5.8h1c0.5,0,0.9-0.2,1.2-0.6c0.3-0.5,0.5-1,0.5-1.8v-1    c0-0.6-0.2-1.3-0.5-1.7C29.4,47.2,29,47,28.5,47L27.5,46.9L27.5,46.9z"></path>
		<path class="st1" d="M36,50h-2.5v2.7h3v0.7h-4v-7.4h4v0.8h-3v2.4H36V50z"></path>
		<path class="st1" d="M5.5,64.1L5.5,64.1c0,0.7-0.2,1.3-0.6,1.8c-0.5,0.4-1,0.6-1.8,0.6s-1.4-0.3-1.8-0.7c-0.5-0.5-0.6-1.2-0.6-2    v-2c0-0.8,0.2-1.6,0.6-2s1-0.7,1.8-0.7s1.3,0.2,1.8,0.6c0.5,0.4,0.6,0.9,0.6,1.7l0,0h-1c0-0.6-0.1-0.9-0.4-1.2    c-0.2-0.3-0.6-0.4-1-0.4S2.2,59.8,2,60c-0.3,0.4-0.4,0.8-0.4,1.5v2c0,0.6,0.1,1.1,0.4,1.5c0.3,0.4,0.6,0.6,1.1,0.6s0.7-0.1,1-0.4    c0.2-0.3,0.4-0.6,0.4-1.2L5.5,64.1L5.5,64.1z"></path>
		<path class="st1" d="M8.1,66.3h-1v-7.4h1V66.3z"></path>
		<path class="st1" d="M14.3,59.8h-1.9v6.6h-1v-6.6H9.4v-0.8h4.9V59.8z"></path>
		<path class="st1" d="M17.9,62.5L17.9,62.5l1.6-3.6h1.1l-2.2,4.7v2.7h-0.9v-2.7L15.3,59h1.1L17.9,62.5z"></path>
		<path class="st1" d="M29.6,63.6c0,0.8-0.3,1.6-0.7,2c-0.5,0.5-1.1,0.7-1.9,0.7c-0.7,0-1.4-0.3-1.8-0.7c-0.5-0.5-0.7-1.2-0.7-2v-2    c0-0.8,0.2-1.6,0.7-2s1.1-0.7,1.8-0.7c0.8,0,1.4,0.3,1.9,0.7c0.5,0.5,0.7,1.2,0.7,2V63.6z M28.6,61.6c0-0.6-0.1-1.1-0.4-1.5    c-0.3-0.4-0.6-0.5-1.2-0.5c-0.5,0-0.8,0.2-1.1,0.5c-0.3,0.4-0.4,0.8-0.4,1.5v2c0,0.6,0.1,1.1,0.4,1.5c0.3,0.4,0.6,0.5,1.1,0.5    c0.6,0,0.9-0.2,1.2-0.5c0.3-0.4,0.4-0.8,0.4-1.5V61.6z"></path>
		<path class="st1" d="M34.9,63.1h-2.6v3.2h-1v-7.4h4.1v0.8h-3.1v2.5h2.6V63.1z"></path>
	</g>
	<g>
		<path class="st1" d="M0,94.3V79h4.3c1.7,0,3,0.6,4.1,1.8c1,1.2,1.6,2.8,1.6,4.7v2.1c0,1.9-0.6,3.5-1.6,4.7S6,94.3,4.3,94.3L0,94.3    L0,94.3z M2.1,80.7v12h2.2c1,0,1.8-0.5,2.5-1.4s0.9-2.1,0.9-3.5v-2.2c0-1.4-0.3-2.6-0.9-3.5c-0.6-0.9-1.5-1.4-2.5-1.4H2.1z"></path>
		<path class="st1" d="M23.3,88.7c0,1.8-0.5,3.2-1.5,4.3s-2.3,1.5-4,1.5C16.2,94.4,15,94,14,93c-0.9-1-1.5-2.4-1.5-4.3v-4.2    c0-1.8,0.5-3.2,1.5-4.3c0.9-1,2.2-1.6,3.9-1.6c1.7,0,3,0.5,4,1.5c1,1,1.5,2.4,1.5,4.3V88.7z M21.2,84.5c0-1.3-0.3-2.3-0.8-3.1    c-0.6-0.6-1.4-1-2.4-1s-1.8,0.4-2.3,1c-0.6,0.6-0.8,1.7-0.8,3.1v4.3c0,1.4,0.3,2.4,0.8,3.1c0.6,0.6,1.3,1,2.4,1c1,0,1.8-0.4,2.4-1    c0.6-0.6,0.8-1.7,0.8-3.1L21.2,84.5L21.2,84.5z"></path>
		<path class="st1" d="M28.5,92.7h6.2v1.6h-8.3V79h2.1V92.7z"></path>
		<path class="st1" d="M39.3,92.7h6.2v1.6h-8.3V79h2.1V92.7z"></path>
		<path class="st1" d="M55,90.4h-4.5l-1.1,3.9h-2.2L51.8,79h2l4.5,15.3h-2.2L55,90.4z M51,88.7h3.6l-1.8-6.2h-0.1L51,88.7z"></path>
		<path class="st1" d="M62.8,87.7v6.6h-2.1V79h4.5c1.5,0,2.6,0.4,3.4,1.1c0.8,0.7,1.2,1.8,1.2,3.2c0,0.8-0.2,1.5-0.6,2.1    c-0.4,0.6-0.9,1-1.6,1.4c0.7,0.3,1.4,0.7,1.7,1.3c0.4,0.6,0.6,1.4,0.6,2.3v1.3c0,0.5,0,0.9,0.1,1.3c0.1,0.4,0.3,0.7,0.5,0.9v0.3    h-2.2c-0.3-0.2-0.4-0.6-0.5-1c-0.1-0.5-0.1-0.9-0.1-1.5v-1.3c0-0.8-0.2-1.6-0.6-2c-0.4-0.5-0.9-0.7-1.7-0.7H62.8z M62.8,86H65    c0.9,0,1.6-0.3,1.9-0.7c0.5-0.5,0.6-1.1,0.6-1.9c0-0.8-0.2-1.6-0.6-2c-0.4-0.5-1-0.7-1.8-0.7h-2.4L62.8,86L62.8,86z"></path>
		<path class="st1" d="M73.2,94.3V79h4.3c1.7,0,3,0.6,4.1,1.8c1,1.2,1.6,2.8,1.6,4.7v2.1c0,1.9-0.6,3.5-1.6,4.7s-2.4,1.8-4.1,1.8    L73.2,94.3L73.2,94.3z M75.3,80.7v12h2.2c1,0,1.8-0.5,2.5-1.4s0.9-2.1,0.9-3.5v-2.2c0-1.4-0.3-2.6-0.9-3.5    c-0.6-0.9-1.5-1.4-2.5-1.4H75.3z"></path>
		<path class="st1" d="M91.5,88.6h-5.3V87h5.3V88.6z"></path>
		<path class="st1" d="M95,94.3V79h4.3c1.7,0,3,0.6,4.1,1.8c1,1.2,1.6,2.8,1.6,4.7v2.1c0,1.9-0.6,3.5-1.6,4.7    c-1,1.2-2.4,1.8-4.1,1.8L95,94.3L95,94.3z M97.1,80.7v12h2.2c1,0,1.8-0.5,2.5-1.4c0.6-0.9,0.9-2.1,0.9-3.5v-2.2    c0-1.4-0.3-2.6-0.9-3.5c-0.6-0.9-1.5-1.4-2.5-1.4H97.1z"></path>
		<path class="st1" d="M115.2,87.1h-5.2v5.5h6.1v1.6h-8.2V78.9h8.1v1.7h-6v4.9h5.2L115.2,87.1L115.2,87.1z"></path>
		<path class="st1" d="M125.9,90.4c0-0.7-0.2-1.3-0.6-1.8c-0.4-0.5-1.1-0.8-2.1-1.2c-1.4-0.5-2.5-1-3.3-1.8    c-0.7-0.7-1.1-1.7-1.1-2.8c0-1.2,0.5-2.2,1.3-3c0.8-0.7,1.9-1.2,3.2-1.2c1.4,0,2.6,0.5,3.4,1.3c0.8,0.8,1.3,1.9,1.2,3.2v0.1h-2    c0-0.9-0.3-1.6-0.7-2.1c-0.5-0.6-1.1-0.8-1.8-0.8c-0.7,0-1.4,0.3-1.8,0.7c-0.5,0.5-0.6,1.1-0.6,1.8s0.2,1.2,0.6,1.7    c0.5,0.5,1.2,0.8,2.2,1.2c1.4,0.5,2.4,1,3.1,1.8c0.7,0.7,1.1,1.7,1.1,2.9s-0.5,2.2-1.3,3c-0.8,0.7-1.9,1.1-3.3,1.1    c-1.4,0-2.5-0.4-3.5-1.2c-1-0.8-1.5-1.9-1.5-3.4v-0.1h2c0,1,0.3,1.8,0.8,2.3c0.6,0.6,1.2,0.7,2,0.7s1.4-0.2,1.8-0.6    C125.6,91.8,125.9,91.2,125.9,90.4z"></path>
		<path class="st1" d="M136.2,88.6h-5.3V87h5.3V88.6z"></path>
		<path class="st1" d="M149.9,88.7c0,1.8-0.5,3.2-1.5,4.3c-1,1-2.3,1.5-4,1.5c-1.7,0-2.9-0.5-3.9-1.5c-0.9-1-1.5-2.4-1.5-4.3v-4.2    c0-1.8,0.5-3.2,1.5-4.3c0.9-1,2.2-1.6,3.9-1.6c1.7,0,3,0.5,4,1.5c1,1,1.5,2.4,1.5,4.3V88.7z M147.8,84.5c0-1.3-0.3-2.3-0.8-3.1    c-0.6-0.6-1.4-1-2.4-1c-1,0-1.8,0.4-2.3,1c-0.6,0.6-0.8,1.7-0.8,3.1v4.3c0,1.4,0.3,2.4,0.8,3.1c0.6,0.6,1.3,1,2.4,1    c1,0,1.8-0.4,2.4-1c0.6-0.6,0.8-1.7,0.8-3.1L147.8,84.5L147.8,84.5z"></path>
		<path class="st1" d="M155.1,87.7v6.6H153V79h4.5c1.5,0,2.6,0.4,3.4,1.1c0.8,0.7,1.2,1.8,1.2,3.2c0,0.8-0.2,1.5-0.6,2.1    c-0.4,0.6-0.9,1-1.6,1.4c0.7,0.3,1.4,0.7,1.7,1.3c0.4,0.6,0.6,1.4,0.6,2.3v1.3c0,0.5,0,0.9,0.1,1.3c0.1,0.4,0.3,0.7,0.5,0.9v0.3    h-2.2c-0.3-0.2-0.4-0.6-0.5-1c-0.1-0.5-0.1-0.9-0.1-1.5v-1.3c0-0.8-0.2-1.6-0.6-2c-0.4-0.5-0.9-0.7-1.7-0.7H155.1z M155.1,86h2.2    c0.9,0,1.6-0.3,1.9-0.7c0.5-0.5,0.6-1.1,0.6-1.9c0-0.8-0.2-1.6-0.6-2c-0.5-0.5-1-0.7-1.8-0.7H155L155.1,86L155.1,86z"></path>
		<path class="st1" d="M171.9,91.5L171.9,91.5l3.7-12.5h2.7v15.3h-2.1v-11H176l-3.5,11H171l-3.5-11.2h-0.1v11.2h-2V79h2.8    L171.9,91.5z"></path>
		<path class="st1" d="M189,87.1h-5.2v5.5h6.1v1.6h-8.2V78.9h8.1v1.7h-6v4.9h5.2L189,87.1L189,87.1z"></path>
		<path class="st1" d="M199.3,90.4h-4.5l-1.1,3.9h-2.2l4.6-15.3h2l4.5,15.3h-2.2L199.3,90.4z M195.3,88.7h3.6l-1.8-6.2H197    L195.3,88.7z"></path>
		<path class="st1" d="M214.8,79v10.1c0,1.7-0.5,3.1-1.4,4c-0.9,0.9-2.2,1.4-3.7,1.4s-2.7-0.5-3.6-1.4c-0.9-0.9-1.4-2.3-1.4-4V79    h2.1v10.1c0,1.2,0.3,2.1,0.8,2.8c0.6,0.6,1.2,1,2.1,1c0.9,0,1.6-0.4,2.1-1c0.6-0.6,0.8-1.6,0.8-2.8V79H214.8z"></path>
		<path class="st1" d="M222.5,84.9L222.5,84.9l2.9-6h2.5l-4.1,7.6l4.3,7.7h-2.6l-2.9-6.1h-0.1l-2.9,6.1h-2.5l4.2-7.7l-4.1-7.6h2.5    L222.5,84.9z"></path>
	</g>
</g>
</svg>